<?xml version="1.0" encoding="UTF-8" standalone="no"?>
<svg width="35px" height="36px" viewBox="0 0 35 36" version="1.1" xmlns="http://www.w3.org/2000/svg" xmlns:xlink="http://www.w3.org/1999/xlink">
    <!-- Generator: Sketch 3.8.2 (29753) - http://www.bohemiancoding.com/sketch -->
    <title>Group 7</title>
    <desc>Created with Sketch.</desc>
    <defs>
        <rect id="path-1" x="0" y="0" width="34" height="34" rx="7"></rect>
        <filter x="-50%" y="-50%" width="200%" height="200%" filterUnits="objectBoundingBox" id="filter-2">
            <feOffset dx="1" dy="2" in="SourceAlpha" result="shadowOffsetOuter1"></feOffset>
            <feColorMatrix values="0 0 0 0 0.832934736   0 0 0 0 0.832934736   0 0 0 0 0.832934736  0 0 0 0.5 0" type="matrix" in="shadowOffsetOuter1"></feColorMatrix>
        </filter>
    </defs>
    <g id="New-Design-Student" stroke="none" stroke-width="1" fill="none" fill-rule="evenodd">
        <g id="iPhone-6-Copy-7" transform="translate(-25.000000, -167.000000)">
            <g id="Group-5" transform="translate(25.000000, 164.000000)">
                <g id="Group-7" transform="translate(0.000000, 3.000000)">
                    <g id="Rectangle-1">
                        <use fill="black" fill-opacity="1" filter="url(#filter-2)" xlink:href="#path-1"></use>
                        <use fill="#43B7B4" fill-rule="evenodd" xlink:href="#path-1"></use>
                    </g>
                    <path d="M30.3868972,18.0647647 L23.6766282,18.0647647 C23.2901729,16.2317956 22.0605425,15.5973063 21.0768381,15.1038146 C20.2336629,14.6808217 19.6715462,14.3635771 19.4607524,13.4470925 C21.182235,12.3543609 22.130807,10.4156436 21.8146164,8.33592862 C21.4984257,6.11521603 19.6364139,4.28224691 17.3879467,4.03550107 C14.3314368,3.683007 11.6965144,6.07996662 11.6965144,9.11141556 C11.6965144,10.8738859 12.6099542,12.4953585 14.120643,13.4470925 C13.9098492,14.3635771 13.3477324,14.6808217 12.5045573,15.1038146 C11.5559852,15.5973063 10.2912224,16.267045 9.90476717,18.0647647 L7.02391869,18.0647647 L7.02391869,16.6547885 C7.02391869,16.1612968 7.16444788,15.7383039 7.41037397,15.315311 C8.11301994,15.4915581 8.95619511,15.1038146 9.48317958,14.3283277 C10.115561,13.3765937 10.0101641,12.1781139 9.2021212,11.6846222 C8.42921063,11.1558811 7.26984478,11.5083752 6.6725957,12.4601091 C6.25100812,13.0945985 6.18074352,13.8700854 6.39153731,14.4340759 C5.96994973,15.0685652 5.72402364,15.8440521 5.72402364,16.6547885 L5.72402364,18.0647647 L3.19449815,18.0647647 C2.52698448,18.0647647 2,18.5935058 2,19.2632445 L2,23.1406792 C2,23.3169262 2.0351323,23.4931733 2.1053969,23.6341709 L4.07280561,27.9698479 C4.2484671,28.3928407 4.70518699,28.674836 5.16190687,28.674836 L7.02391869,28.674836 L7.02391869,34.7377338 C7.02391869,35.2664749 7.44550627,35.7247172 8.00762305,35.7247172 C8.53460752,35.7247172 8.9913274,35.3017243 8.9913274,34.7377338 L8.9913274,26.6303704 L24.5900679,26.6303704 L24.5900679,34.7377338 C24.5900679,35.2664749 25.0116555,35.7247172 25.5737723,35.7247172 C26.1358891,35.7247172 26.5574767,35.3017243 26.5574767,34.7377338 L26.5574767,28.674836 L28.2086947,28.674836 C28.6654146,28.674836 29.0518699,28.4280901 29.2626636,28.0050973 L31.4408662,23.6694203 C31.5111308,23.4931733 31.5813953,23.3169262 31.5813953,23.1406792 L31.5813953,19.2632445 C31.5813953,18.5935058 31.0192786,18.0647647 30.3868972,18.0647647 L30.3868972,18.0647647 Z M16.7906977,5.97421841 C16.9312269,5.97421841 17.0366238,5.97421841 17.177153,6.00946781 C18.5473126,6.18571484 19.6715462,7.27844643 19.8823399,8.65317328 C20.0931337,9.99265071 19.4607524,11.2616293 18.3013865,11.8961186 C17.3879467,12.3896103 16.1934486,12.3896103 15.2800088,11.8961186 C14.2963045,11.3321281 13.6639231,10.274646 13.6639231,9.14666496 C13.6639231,7.38419465 15.069215,5.97421841 16.7906977,5.97421841 L16.7906977,5.97421841 Z M13.3828647,16.8662849 C14.2963045,16.3727932 15.4908026,15.7735533 15.9475225,14.1520806 C16.2285809,14.18733 16.5096393,14.2225795 16.7906977,14.2225795 C17.0717561,14.2225795 17.3528145,14.18733 17.6338728,14.1520806 C18.0905927,15.7735533 19.2850909,16.4080426 20.1985306,16.8662849 C20.9011766,17.218779 21.3930288,17.5007742 21.6389549,18.1000141 L11.9424405,18.1000141 C12.1883666,17.5007742 12.6802187,17.218779 13.3828647,16.8662849 L13.3828647,16.8662849 Z M29.6139866,20.0387315 L29.6139866,21.3782089 L3.96740872,21.3782089 L3.96740872,20.0387315 L29.6139866,20.0387315 L29.6139866,20.0387315 Z M27.7168425,26.7008692 L26.5223444,26.7008692 L26.5223444,25.8901329 C26.5223444,25.2203942 25.9953599,24.6916531 25.3278462,24.6916531 L8.21841684,24.6916531 C7.55090317,24.6916531 7.02391869,25.2203942 7.02391869,25.8901329 L7.02391869,26.7008692 L5.65375905,26.7008692 L4.14307021,23.3521757 L29.4031928,23.3521757 L27.7168425,26.7008692 L27.7168425,26.7008692 Z" id="Shape" fill="#FFFFFF"></path>
                </g>
            </g>
        </g>
    </g>
</svg>