<?xml version="1.0" encoding="UTF-8" standalone="no"?>
<svg width="139px" height="175px" viewBox="0 0 139 175" version="1.1" xmlns="http://www.w3.org/2000/svg" xmlns:xlink="http://www.w3.org/1999/xlink">
    <!-- Generator: Sketch 3.8.1 (29687) - http://www.bohemiancoding.com/sketch -->
    <title>Group 2</title>
    <desc>Created with Sketch.</desc>
    <defs></defs>
    <g id="Color-Scheme-Option" stroke="none" stroke-width="1" fill="none" fill-rule="evenodd">
        <g id="Group-2" fill="#fff">
            <text id="Splice" font-family="Lato-Regular, Lato" font-size="30" font-weight="normal" letter-spacing="1">
            </text>
            <g id="noun_137336_cc">
                <g id="Group">
                    <path d="M125.602538,69.3928464 L126.703846,68.2779594 C142.154231,52.6803362 142.155758,27.3000812 126.703846,11.7009159 C111.251934,-3.89824928 86.1112637,-3.89824928 70.6593516,11.7009159 L69.5565165,12.8127188 L68.4552088,11.7009159 C53.0032967,-3.89824928 27.8610989,-3.89824928 12.4091868,11.7009159 C-3.04272527,27.3000812 -3.04272527,52.6803362 12.4107143,68.2779594 L13.512022,69.3928464 L12.4107143,70.5046493 C-3.04272527,86.1038145 -3.04272527,111.482528 12.4091868,127.084777 C27.8626264,142.6824 53.0048242,142.6824 68.4552088,127.084777 L69.5565165,125.971432 L70.6593516,127.084777 C86.1112637,142.6824 111.251934,142.6824 126.703846,127.084777 C142.155758,111.482528 142.154231,86.1038145 126.703846,70.5046493 L125.602538,69.3928464 L125.602538,69.3928464 Z M75.5380989,16.6276986 C88.2986044,3.74558841 109.061538,3.74558841 121.820516,16.6276986 C134.581022,29.5098087 134.581022,50.4721507 121.822044,63.3527188 L84.6693297,100.85949 C81.8251758,103.73229 81.1317033,107.140174 84.5028352,110.583525 L85.7721648,111.8264 C92.8901868,119.012255 104.471484,119.012255 111.589505,111.8264 C118.707527,104.640545 118.707527,92.9473391 111.591033,85.7614841 L110.488198,84.6481391 L113.162802,81.9495884 L114.265637,83.0629333 C122.860725,91.7368464 122.860725,105.854122 114.265637,114.528035 C105.673604,123.201948 91.6880659,123.201948 83.096033,114.528035 C83.096033,114.528035 82.5553077,114.06851 81.8236484,113.325252 C81.1515604,112.635965 74.4566484,105.770852 81.9947253,98.1593971 L119.145912,60.6526261 C130.432407,49.2601159 130.432407,30.7233855 119.145912,19.3293333 C107.860945,7.93836522 89.5007253,7.93836522 78.2157582,19.3308754 L77.1113956,20.4426783 L74.4352637,17.7425855 L75.5380989,16.6276986 L75.5380989,16.6276986 Z M106.709231,106.901159 C102.281088,111.368417 95.0775275,111.368417 90.6493846,106.901159 L89.5480769,105.787814 L105.606396,89.5764638 L106.709231,90.6867246 C111.135846,95.1586087 111.135846,102.429275 106.709231,106.901159 L106.709231,106.901159 Z M17.2894615,16.6276986 C30.049967,3.74558841 50.8144286,3.74558841 63.5749341,16.6276986 L100.724593,54.1313855 L98.0484615,56.8361043 L60.8972747,19.3293333 C49.6107802,7.93682319 31.2520879,7.93682319 19.9671209,19.3293333 C8.68062637,30.7218435 8.68062637,49.2585739 19.9671209,60.6510841 L21.0684286,61.764429 L18.3922967,64.4660638 L17.2894615,63.3542609 C4.52895604,50.4721507 4.52895604,29.5113507 17.2894615,16.6276986 L17.2894615,16.6276986 Z M89.5496044,32.9963362 L90.6509121,31.8829913 C95.0775275,27.4141913 102.281088,27.4141913 106.710758,31.8829913 C111.135846,36.3517913 111.135846,43.622458 106.710758,48.0958841 L105.607923,49.207687 L89.5496044,32.9963362 L89.5496044,32.9963362 Z M31.0642088,82.1855188 L27.522,85.759942 C20.4024505,92.9457971 20.403978,104.639003 27.522,111.824858 C34.6384945,119.010713 46.2213187,119.010713 53.3393407,111.824858 L54.4421758,110.711513 C59.8815055,105.223432 53.3347582,99.7569391 50.1851099,96.5757333 L48.1337143,94.4878261 L38.3838571,84.6450551 L41.059989,81.9465043 L54.0282308,95.0367884 L55.0516374,96.0730319 C64.5861209,105.693751 57.8576044,112.665264 57.1183077,113.411606 L56.0154725,114.524951 C47.4219121,123.20349 33.4394286,123.198864 24.8443407,114.524951 C16.2523077,105.851038 16.2523077,91.7337623 24.8458681,83.0567652 L62.0001099,45.5515362 L64.6747143,48.2562551 L46.1754945,66.9286841 L31.0642088,82.1855188 L31.0642088,82.1855188 Z M33.5035824,89.5780058 L49.5619011,105.78473 L48.4590659,106.899617 C44.0309231,111.366875 36.8288901,111.369959 32.4022747,106.899617 C27.9756593,102.430817 27.9756593,95.1570667 32.4022747,90.6882667 L33.5035824,89.5780058 L33.5035824,89.5780058 Z M69.554989,53.1814957 L85.6117802,69.3928464 L69.554989,85.601113 L53.4966703,69.3928464 L69.554989,53.1814957 L69.554989,53.1814957 Z M53.3408681,26.9592928 C46.2228462,19.7703536 34.640022,19.7734377 27.5235275,26.9592928 C20.4055055,34.1420638 20.403978,45.8368116 27.5235275,53.0226667 L28.6248352,54.1360116 L25.9487033,56.8361043 L24.8458681,55.7243014 C16.2523077,47.0473043 16.2538352,32.931571 24.8458681,24.2545739 C33.440956,15.5806609 47.4234396,15.5791188 56.017,24.2545739 L93.1697143,61.7613449 L90.4935824,64.4629797 L53.3408681,26.9592928 L53.3408681,26.9592928 Z M49.5619011,32.9978783 L33.5035824,49.207687 L32.4022747,48.0958841 C27.9741319,43.625542 27.9741319,36.3533333 32.4007473,31.8829913 C36.8273626,27.4141913 44.0309231,27.4141913 48.4590659,31.8860754 L49.5619011,32.9978783 L49.5619011,32.9978783 Z M121.820516,122.156452 C109.061538,135.038562 88.2986044,135.038562 75.5380989,122.156452 L74.1496264,120.902783 C73.8471868,120.595919 71.2886703,118.029983 69.4037692,114.065426 C67.6456484,117.812557 65.3116703,120.381577 64.6777692,121.043107 L63.5749341,122.156452 C50.8144286,135.038562 30.049967,135.038562 17.2894615,122.156452 C4.52895604,109.274342 4.52895604,88.313542 17.2894615,75.4283478 L54.4421758,37.9246609 L57.1183077,40.6278377 L19.9671209,78.1330667 C8.68062637,89.5271188 8.68062637,108.062307 19.9671209,119.454817 C31.2520879,130.84887 49.6123077,130.84887 60.8972747,119.454817 L62.0596813,118.279791 C64.9893736,115.209612 67.2011538,110.470957 67.3645934,105.590435 C67.3645934,105.447026 67.3752857,105.303617 67.3783407,105.163293 C67.4119451,101.348313 66.1746923,97.4824464 63.0097692,94.2842783 C61.0484945,92.304313 57.1137253,88.3320464 57.1137253,88.3320464 L56.547033,87.7229449 L45.9433187,77.0197217 L48.6194505,74.3165449 L63.4252418,89.2634319 L64.6670769,90.5402319 C66.8635824,92.7592116 68.4231319,94.9673971 69.4954176,97.1231536 C70.5722857,95.0444986 72.0997582,92.9134145 74.2336374,90.757658 L74.4383187,90.5294377 L111.59256,53.0242087 C118.709055,45.8383536 118.709055,34.1436058 111.591033,26.9577507 C104.474538,19.7718957 92.8917143,19.7718957 85.7736923,26.9577507 L84.6708571,28.0726377 L81.9962527,25.3710029 L83.0975604,24.2561159 C91.6895934,15.5822029 105.675132,15.5822029 114.267165,24.2561159 C122.862253,32.933113 122.862253,47.0488464 114.267165,55.7227594 L77.1098681,93.2310725 L75.9382967,94.4184348 C68.5025604,101.925032 71.4230879,112.674516 76.8608901,118.161055 L78.2142308,119.454817 C89.4991978,130.84887 107.859418,130.84887 119.144385,119.454817 C130.430879,108.062307 130.430879,89.5271188 119.144385,78.1330667 L118.041549,77.0197217 L120.717681,74.3165449 L121.820516,75.4314319 C134.581022,88.313542 134.581022,109.2728 121.820516,122.156452 L121.820516,122.156452 Z" id="Shape"></path>
                </g>
            </g>
        </g>
    </g>
</svg>