<?xml version="1.0" encoding="UTF-8" standalone="no"?>
<svg width="95px" height="95px" viewBox="0 0 95 95" version="1.1" xmlns="http://www.w3.org/2000/svg" xmlns:xlink="http://www.w3.org/1999/xlink">
    <!-- Generator: Sketch 3.8.1 (29687) - http://www.bohemiancoding.com/sketch -->
    <title>Group</title>
    <desc>Created with Sketch.</desc>
    <defs></defs>
    <g id="New-Design-Student" stroke="none" stroke-width="1" fill="none" fill-rule="evenodd">
        <g id="iPhone-6-Copy-9" transform="translate(-143.000000, -303.000000)">
            <g id="noun_139157_cc" transform="translate(143.000000, 303.000000)">
                <g id="Group">
                    <g>
                        <circle id="Oval-32" fill="#ECF0F1" cx="47.5" cy="47.5" r="47.5"></circle>
                        <path d="M47.5,0 C21.3222222,0 0,21.3222222 0,47.5 C0,73.6777778 21.3222222,95 47.5,95 C73.6777778,95 95,73.6777778 95,47.5 C95,21.3222222 73.6777778,0 47.5,0 L47.5,0 Z M47.5,90.5666667 C23.75,90.5666667 4.43333333,71.25 4.43333333,47.5 C4.43333333,23.75 23.75,4.43333333 47.5,4.43333333 C71.25,4.43333333 90.5666667,23.75 90.5666667,47.5 C90.5666667,71.25 71.25,90.5666667 47.5,90.5666667 L47.5,90.5666667 Z" id="Shape" fill="#A7B9C3"></path>
                        <path d="M70.8277778,19.3166667 C71.25,18.5777778 71.1444444,17.6277778 70.7222222,16.7833333 C70.3,15.8333333 69.4555556,14.9888889 68.4,14.3555556 C66.1833333,13.0888889 63.7555556,13.3 62.9111111,14.6722222 C62.4888889,15.4111111 62.4888889,16.3611111 63.0166667,17.2055556 C63.2277778,17.6277778 63.5444444,18.05 63.9666667,18.4722222 C64.3888889,18.8944444 64.8111111,19.2111111 65.3388889,19.5277778 C66.3944444,20.1611111 67.5555556,20.4777778 68.6111111,20.3722222 C69.5611111,20.4777778 70.4055556,20.0555556 70.8277778,19.3166667 L70.8277778,19.3166667 Z" id="Shape" fill="#A7B9C3"></path>
                        <path d="M35.3611111,25.65 C35.8888889,26.2833333 36.7333333,26.7055556 37.6833333,26.7055556 L37.6833333,26.7055556 L37.6833333,26.7055556 C37.5777778,28.7111111 38.4222222,30.5055556 39.9,31.35 C40.3222222,31.6666667 40.85,31.7722222 41.3777778,31.8777778 C42.8555556,32.0888889 44.5444444,31.5611111 45.9166667,30.2944444 C46.9722222,30.0833333 48.0277778,29.5555556 48.6611111,28.7111111 C49.4,27.8666667 49.8222222,26.8111111 49.8222222,25.65 C49.8222222,24.2777778 49.1888889,23.0111111 48.2388889,22.1666667 C48.0277778,21.7444444 47.8166667,21.3222222 47.5,20.9 C47.1833333,20.5833333 46.8666667,20.2666667 46.4444444,19.95 C45.9166667,19.6333333 45.3888889,19.5277778 44.7555556,19.4222222 C44.2277778,19.3166667 43.5944444,19.4222222 42.9611111,19.5277778 C41.8,19.8444444 40.6388889,20.5833333 39.6888889,21.6388889 C39.3722222,21.3222222 39.0555556,21.1111111 38.7388889,21.0055556 C38.4222222,20.9 38,20.7944444 37.5777778,20.7944444 C36.3111111,20.7944444 35.3611111,21.5333333 34.8333333,22.5888889 C34.7277778,22.9055556 34.6222222,23.3277778 34.6222222,23.75 C34.6222222,24.1722222 34.7277778,24.5944444 34.8333333,24.9111111 C35.0444444,25.2277778 35.15,25.4388889 35.3611111,25.65 L35.3611111,25.65 Z" id="Shape" fill="#A7B9C3"></path>
                        <path d="M59.85,23.6444444 C59.4277778,23.6444444 59.0055556,23.75 58.5833333,23.8555556 C57.7388889,24.0666667 57,24.4888889 56.3666667,25.0166667 C56.05,25.3333333 55.8388889,25.65 55.5222222,25.9666667 C52.25,26.1777778 49.6111111,28.9222222 49.6111111,32.3 C49.6111111,34.9388889 51.1944444,37.1555556 53.5166667,38.2111111 C53.6222222,38.2111111 53.7277778,38.2111111 53.7277778,38.3166667 C53.9388889,37.5777778 54.5722222,36.9444444 55.4166667,36.9444444 C56.2611111,36.9444444 57,37.5777778 57.1055556,38.5277778 C59.7444444,38 61.8555556,35.9944444 62.1722222,33.3555556 C63.7555556,32.5111111 64.8111111,30.8222222 64.8111111,28.9222222 C64.8111111,27.55 64.2833333,26.1777778 63.3333333,25.3333333 C62.4888889,24.2777778 61.2222222,23.6444444 59.85,23.6444444 L59.85,23.6444444 Z" id="Shape" fill="#A7B9C3"></path>
                        <path d="M77.1611111,27.0222222 C76.6333333,26.2833333 76,25.65 75.05,25.2277778 C74.4166667,25.0166667 73.7833333,24.8055556 73.0444444,24.8055556 C72.3055556,24.8055556 71.6722222,24.9111111 71.0388889,25.2277778 C69.7722222,25.7555556 68.8222222,26.7055556 68.2944444,27.9722222 C68.0833333,28.6055556 67.8722222,29.2388889 67.8722222,29.9777778 C67.8722222,30.7166667 67.9777778,31.35 68.2944444,31.9833333 C68.8222222,33.25 69.7722222,34.2 71.0388889,34.7277778 C71.6722222,34.9388889 72.3055556,35.15 73.0444444,35.15 C74.4166667,35.15 75.7888889,34.6222222 76.6333333,33.6722222 C77.5833333,32.7222222 78.1111111,31.4555556 78.1111111,30.0833333 C78.2166667,28.8166667 77.7944444,27.8666667 77.1611111,27.0222222 L77.1611111,27.0222222 Z" id="Shape" fill="#A7B9C3"></path>
                        <path d="M69.7722222,41.2722222 C69.4555556,41.2722222 69.1388889,41.3777778 68.9277778,41.4833333 C68.1888889,41.8 67.5555556,42.6444444 67.5555556,43.4888889 C67.5555556,44.3333333 68.0833333,45.1777778 68.9277778,45.4944444 C69.1388889,45.6 69.4555556,45.7055556 69.7722222,45.7055556 C70.9333333,45.7055556 71.9888889,44.7555556 71.9888889,43.4888889 C71.9888889,42.2222222 71.0388889,41.2722222 69.7722222,41.2722222 L69.7722222,41.2722222 Z" id="Shape" fill="#A7B9C3"></path>
                        <ellipse id="Oval" fill="#A7B9C3" cx="24.8055556" cy="18.7888889" rx="2.21666667" ry="2.21666667"></ellipse>
                        <path d="M76,20.3722222 C76.4222222,20.3722222 76.7388889,20.2666667 77.0555556,20.0555556 C76.1055556,19 75.1555556,18.05 74.1,17.2055556 L74.1,17.2055556 C73.9944444,17.5222222 73.8888889,17.8388889 73.8888889,18.1555556 C73.8888889,18.7888889 74.1,19.3166667 74.5222222,19.7388889 C74.8388889,20.1611111 75.3666667,20.3722222 76,20.3722222 L76,20.3722222 Z" id="Shape" fill="#A7B9C3"></path>
                        <ellipse id="Oval" fill="#A7B9C3" cx="57.3166667" cy="74.4166667" rx="0.95" ry="0.95"></ellipse>
                        <path d="M39.2666667,36.5222222 C38.7388889,36.9444444 38.4222222,37.4722222 38.4222222,38 C38.4222222,38.5277778 38.7388889,39.0555556 39.2666667,39.4777778 C39.7944444,39.9 40.4277778,40.1111111 41.1666667,40.1111111 C41.9055556,40.1111111 42.6444444,39.9 43.0666667,39.4777778 C43.5944444,39.0555556 43.9111111,38.5277778 43.9111111,38 C43.9111111,37.4722222 43.5944444,36.9444444 43.0666667,36.5222222 C42.5388889,36.1 41.9055556,35.8888889 41.1666667,35.8888889 C40.4277778,35.9944444 39.7944444,36.2055556 39.2666667,36.5222222 L39.2666667,36.5222222 Z" id="Shape" fill="#A7B9C3"></path>
                        <path d="M45.0722222,61.2222222 L45.0722222,61.2222222 C41.8,61.2222222 39.0555556,63.8611111 39.0555556,67.2388889 C39.0555556,70.5111111 41.6944444,72.2 45.0722222,72.2 L45.0722222,72.2 C47.1833333,72.2 48.9777778,71.5666667 50.0333333,70.3 C50.6666667,69.5611111 51.0888889,68.5055556 51.0888889,67.2388889 C51.0888889,65.9722222 50.6666667,64.8111111 50.0333333,63.8611111 C48.9777778,62.2777778 47.1833333,61.2222222 45.0722222,61.2222222 L45.0722222,61.2222222 Z" id="Shape" fill="#A7B9C3"></path>
                        <path d="M32.8277778,65.4444444 C33.4611111,66.1833333 34.4111111,66.7111111 35.4666667,66.7111111 C35.8888889,66.7111111 36.3111111,66.6055556 36.7333333,66.5 C37.8944444,65.9722222 38.7388889,64.8111111 38.7388889,63.4388889 C38.7388889,62.4888889 38.3166667,61.6444444 37.7888889,61.1166667 C37.4722222,60.8 37.1555556,60.5888889 36.7333333,60.3777778 C36.3111111,60.1666667 35.8888889,60.1666667 35.4666667,60.1666667 C34.0944444,60.1666667 32.9333333,61.0111111 32.4055556,62.1722222 C32.1944444,61.6444444 31.8777778,61.2222222 31.5611111,60.6944444 C31.2444444,60.2722222 30.8222222,59.85 30.5055556,59.5333333 L30.5055556,59.5333333 C34.7277778,58.7944444 37.8944444,54.9944444 37.8944444,50.5611111 C37.8944444,45.4944444 33.7777778,41.4833333 28.8166667,41.4833333 C28.2888889,41.4833333 27.7611111,41.4833333 27.2333333,41.5888889 C26.7055556,41.6944444 26.2833333,41.8 25.7555556,42.0111111 C26.7055556,41.0611111 27.4444444,39.7944444 27.7611111,38.3166667 C27.8666667,37.7888889 27.8666667,37.3666667 27.8666667,36.8388889 C27.8666667,36.5222222 27.8666667,36.2055556 27.7611111,35.7833333 C28.3944444,35.15 28.8166667,34.5166667 29.2388889,33.6722222 C29.5555556,32.8277778 29.7666667,31.9833333 29.7666667,31.0333333 C29.7666667,27.4444444 26.8111111,24.4888889 23.2222222,24.4888889 C22.8,24.4888889 22.3777778,24.4888889 21.9555556,24.5944444 C21.1111111,24.8055556 20.3722222,25.0166667 19.7388889,25.5444444 C19.1055556,25.9666667 18.4722222,26.4944444 17.9444444,27.1277778 C17.6277778,27.55 17.3111111,28.0777778 17.1,28.6055556 C16.8888889,29.1333333 16.7833333,29.6611111 16.6777778,30.2944444 L16.6777778,30.2944444 C18.05,30.5055556 19.1055556,31.5611111 19.1055556,33.0388889 C19.1055556,34.6222222 17.8388889,35.7833333 16.3611111,35.7833333 C15.2,35.7833333 14.1444444,35.0444444 13.7222222,33.9888889 C13.4055556,34.8333333 13.0888889,35.7833333 13.0888889,36.7333333 C13.0888889,38.2111111 13.5111111,39.5833333 14.25,40.6388889 C13.6166667,41.2722222 12.8777778,41.2722222 12.2444444,40.85 C11.8222222,40.5333333 11.4,40.1111111 10.9777778,39.6888889 C10.7666667,39.4777778 10.6611111,39.1611111 10.45,38.95 C10.1333333,38.4222222 9.81666667,38 9.71111111,37.5777778 C9.28888889,36.7333333 9.18333333,35.6777778 8.97222222,35.15 C7.91666667,38.5277778 7.17777778,42.1166667 7.07222222,45.8111111 L7.07222222,47.5 L7.07222222,48.9777778 C8.76111111,48.45 10.6611111,49.9277778 11.4,52.1444444 C12.1388889,54.4666667 11.4,56.6833333 9.71111111,57.2111111 C9.28888889,57.3166667 8.76111111,57.3166667 8.33888889,57.2111111 C8.33888889,57.4222222 8.44444444,57.5277778 8.44444444,57.7388889 C9.39444444,61.1166667 10.7666667,64.3888889 12.4555556,67.3444444 C12.5611111,67.1333333 12.5611111,66.8166667 12.7722222,66.7111111 C13.4055556,66.2888889 14.3555556,66.5 14.8833333,67.3444444 C15.4111111,68.0833333 15.4111111,69.1388889 14.8833333,69.5611111 L14.8833333,69.5611111 L14.8833333,69.5611111 C15.2,69.7722222 15.5166667,69.9833333 15.8333333,70.1944444 C16.8888889,70.7222222 17.9444444,71.1444444 19,71.25 C19.5277778,71.3555556 20.0555556,71.3555556 20.4777778,71.25 C19.95,71.5666667 19.6333333,72.2 19.6333333,72.8333333 C19.6333333,73.8888889 20.4777778,74.7333333 21.5333333,74.7333333 C22.5888889,74.7333333 23.4333333,73.8888889 23.4333333,72.8333333 C23.4333333,71.9888889 22.9055556,71.3555556 22.1666667,71.0388889 C22.5888889,70.9333333 22.9055556,70.9333333 23.3277778,70.7222222 C23.75,70.9333333 24.1722222,71.0388889 24.5944444,71.1444444 C25.0166667,71.25 25.5444444,71.25 25.9666667,71.25 C29.5555556,71.3555556 32.4055556,68.8222222 32.8277778,65.4444444 L32.8277778,65.4444444 L32.8277778,65.4444444 Z M21.5333333,61.6444444 C20.5833333,61.6444444 19.7388889,60.9055556 19.7388889,59.85 C19.7388889,58.9 20.4777778,58.0555556 21.5333333,58.0555556 C22.4833333,58.0555556 23.3277778,58.7944444 23.3277778,59.85 C23.2222222,60.9055556 22.4833333,61.6444444 21.5333333,61.6444444 L21.5333333,61.6444444 Z M27.2333333,55.5222222 C25.7555556,55.5222222 24.5944444,54.3611111 24.5944444,52.8833333 C24.5944444,52.6722222 24.7,52.4611111 24.7,52.25 C24.2777778,52.5666667 23.8555556,52.8833333 23.3277778,52.9888889 C21.3222222,53.6222222 19.1055556,52.5666667 18.5777778,50.7722222 C18.2611111,49.8222222 18.4722222,48.9777778 18.8944444,48.1333333 L17.9444444,48.1333333 C17.3111111,46.6555556 16.2555556,45.3888889 14.7777778,44.5444444 L17.1,43.0666667 L17.1,43.0666667 C17.6277778,43.2777778 18.1555556,43.4888889 18.6833333,43.7 C19.2111111,43.8055556 19.8444444,43.9111111 20.4777778,43.9111111 C21.2166667,43.9111111 21.85,43.8055556 22.5888889,43.5944444 C21.6388889,44.4388889 21.0055556,45.4944444 20.4777778,46.6555556 L20.4777778,46.6555556 C20.6888889,46.55 21.0055556,46.3388889 21.2166667,46.2333333 C23.2222222,45.6 25.4388889,46.6555556 25.9666667,48.45 C26.1777778,49.1888889 26.0722222,49.9277778 25.7555556,50.6666667 C26.1777778,50.4555556 26.6,50.2444444 27.1277778,50.2444444 C28.6055556,50.2444444 29.7666667,51.4055556 29.7666667,52.8833333 C29.8722222,54.3611111 28.7111111,55.5222222 27.2333333,55.5222222 L27.2333333,55.5222222 Z" id="Shape" fill="#A7B9C3"></path>
                        <path d="M37.8944444,76.4222222 C37.8944444,75.05 37.05,73.9944444 35.9944444,73.4666667 C35.5722222,73.2555556 35.15,73.2555556 34.7277778,73.2555556 C32.9333333,73.2555556 31.2444444,74.7333333 31.5611111,76.4222222 C31.7722222,77.6888889 33.4611111,77.9 34.7277778,79.0611111 C34.9388889,79.1666667 35.0444444,79.2722222 35.2555556,79.3777778 C35.4666667,79.3777778 35.5722222,79.4833333 35.7833333,79.3777778 C35.9944444,79.3777778 36.1,79.2722222 36.3111111,79.1666667 C36.5222222,79.0611111 36.6277778,78.9555556 36.8388889,78.85 C37.3666667,78.2166667 37.8944444,77.2666667 37.8944444,76.4222222 L37.8944444,76.4222222 Z" id="Shape" fill="#A7B9C3"></path>
                        <path d="M41.5888889,85.6055556 C41.0611111,84.9722222 40.3222222,84.55 39.4777778,84.55 C39.0555556,84.55 38.6333333,84.55 38.2111111,84.6555556 C37.7888889,84.7611111 37.4722222,84.9722222 37.1555556,85.2888889 C36.8388889,85.5 36.5222222,85.8166667 36.3111111,86.2388889 C38.2111111,86.7666667 40.3222222,87.1888889 42.3277778,87.5055556 C42.3277778,87.2944444 42.2222222,87.0833333 42.2222222,86.7666667 C42.0111111,86.3444444 41.8,85.9222222 41.5888889,85.6055556 L41.5888889,85.6055556 Z" id="Shape" fill="#A7B9C3"></path>
                    </g>
                </g>
            </g>
        </g>
    </g>
</svg>