<?xml version="1.0" encoding="UTF-8" standalone="no"?>
<svg width="26px" height="26px" viewBox="0 0 26 26" version="1.1" xmlns="http://www.w3.org/2000/svg" xmlns:xlink="http://www.w3.org/1999/xlink">
    <!-- Generator: Sketch 3.8.1 (29687) - http://www.bohemiancoding.com/sketch -->
    <title>noun_137336_cc</title>
    <desc>Created with Sketch.</desc>
    <defs></defs>
    <g id="Page-2" stroke="none" stroke-width="1" fill="none" fill-rule="evenodd">
        <g id="A4" transform="translate(-20.000000, -9.000000)" fill="#333">
            <g id="noun_137336_cc" transform="translate(20.000000, 9.000000)">
                <g id="Group">
                    <path d="M23.494,12.9799569 L23.7,12.7714169 C26.59,9.85387584 26.5902857,5.10649 23.7,2.18866054 C20.8097143,-0.729168929 16.1071429,-0.729168929 13.2168571,2.18866054 L13.0105714,2.39662367 L12.8045714,2.18866054 C9.91428571,-0.729168929 5.21142857,-0.729168929 2.32114286,2.18866054 C-0.569142857,5.10649 -0.569142857,9.85387584 2.32142857,12.7714169 L2.52742857,12.9799569 L2.32142857,13.18792 C-0.569142857,16.1057495 -0.569142857,20.8528469 2.32114286,23.7712532 C5.21171429,26.6887942 9.91457143,26.6887942 12.8045714,23.7712532 L13.0105714,23.5630016 L13.2168571,23.7712532 C16.1071429,26.6887942 20.8097143,26.6887942 23.7,23.7712532 C26.5902857,20.8528469 26.59,16.1057495 23.7,13.18792 L23.494,12.9799569 L23.494,12.9799569 Z M14.1294286,3.110217 C16.5162857,0.700613659 20.4,0.700613659 22.7865714,3.110217 C25.1734286,5.51982033 25.1734286,9.44083395 22.7868571,11.8501488 L15.8374286,18.8658039 C15.3054286,19.4031621 15.1757143,20.0406081 15.8062857,20.6846881 L16.0437143,20.9171683 C17.3751429,22.2612851 19.5414286,22.2612851 20.8728571,20.9171683 C22.2042857,19.5730516 22.2042857,17.3858332 20.8731429,16.0417164 L20.6668571,15.8334649 L21.1671429,15.3287 L21.3734286,15.5369516 C22.9811429,17.1594101 22.9811429,19.8000515 21.3734286,21.4225101 C19.7662857,23.0449687 17.1502857,23.0449687 15.5431429,21.4225101 C15.5431429,21.4225101 15.442,21.3365559 15.3051429,21.1975292 C15.1794286,21.0685978 13.9271429,19.7844759 15.3371429,18.3607505 L22.2862857,11.3450955 C24.3974286,9.21412241 24.3974286,5.74682031 22.2862857,3.61555875 C20.1754286,1.48487407 16.7411429,1.48487407 14.6302857,3.61584719 L14.4237143,3.82381032 L13.9231429,3.318757 L14.1294286,3.110217 L14.1294286,3.110217 Z M19.96,19.9959003 C19.1317143,20.8315025 17.7842857,20.8315025 16.956,19.9959003 L16.75,19.7876488 L19.7537143,16.7553098 L19.96,16.9629845 C20.788,17.799452 20.788,19.1594328 19.96,19.9959003 L19.96,19.9959003 Z M3.234,3.110217 C5.62085714,0.700613659 9.50485714,0.700613659 11.8917143,3.110217 L18.8405714,10.1252951 L18.34,10.6312138 L11.3908571,3.61555875 C9.27971429,1.48458563 5.84571429,1.48458563 3.73485714,3.61555875 C1.62371429,5.74653187 1.62371429,9.21383397 3.73485714,11.3448071 L3.94085714,11.5530587 L3.44028571,12.0584004 L3.234,11.8504373 C0.847142857,9.44083395 0.847142857,5.52010877 3.234,3.110217 L3.234,3.110217 Z M16.7502857,6.17197656 L16.9562857,5.96372499 C17.7842857,5.12783434 19.1317143,5.12783434 19.9602857,5.96372499 C20.788,6.79961564 20.788,8.15959646 19.9602857,8.99635241 L19.754,9.20431555 L16.7502857,6.17197656 L16.7502857,6.17197656 Z M5.81057143,15.3728309 L5.148,16.041428 C3.81628571,17.3855448 3.81657143,19.5727631 5.148,20.9168799 C6.47914286,22.2609967 8.64571429,22.2609967 9.97714286,20.9168799 L10.1834286,20.7086283 C11.2008571,19.6820808 9.97628571,18.6595713 9.38714286,18.0645257 L9.00342857,17.6739819 L7.17971429,15.832888 L7.68028571,15.3281231 L10.106,17.7766655 L10.2974286,17.9704952 C12.0808571,19.7700541 10.8222857,21.0740781 10.684,21.2136817 L10.4777143,21.4219332 C8.87028571,23.0452571 6.25485714,23.0443918 4.64714286,21.4219332 C3.04,19.7994747 3.04,17.1588332 4.64742857,15.5357978 L11.5971429,8.52043124 L12.0974286,9.02634987 L8.63714286,12.5190344 L5.81057143,15.3728309 L5.81057143,15.3728309 Z M6.26685714,16.7555982 L9.27057143,19.7870719 L9.06428571,19.9956119 C8.236,20.8312141 6.88885714,20.831791 6.06085714,19.9956119 C5.23285714,19.1597212 5.23285714,17.7991635 6.06085714,16.9632729 L6.26685714,16.7555982 L6.26685714,16.7555982 Z M13.0102857,9.94761789 L16.0137143,12.9799569 L13.0102857,16.011719 L10.0065714,12.9799569 L13.0102857,9.94761789 L13.0102857,9.94761789 Z M9.97742857,5.04274541 C8.646,3.69805176 6.47942857,3.69862863 5.14828571,5.04274541 C3.81685714,6.38628531 3.81657143,8.5737921 5.14828571,9.91790887 L5.35428571,10.1261604 L4.85371429,10.6312138 L4.64742857,10.4232506 C3.04,8.8002152 3.04028571,6.1598622 4.64742857,4.53682678 C6.25514286,2.91436822 8.87057143,2.91407978 10.478,4.53682678 L17.4274286,11.5524818 L16.9268571,12.0578235 L9.97742857,5.04274541 L9.97742857,5.04274541 Z M9.27057143,6.172265 L6.26685714,9.20431555 L6.06085714,8.99635241 C5.23257143,8.16017333 5.23257143,6.79990408 6.06057143,5.96372499 C6.88857143,5.12783434 8.236,5.12783434 9.06428571,5.96430187 L9.27057143,6.172265 L9.27057143,6.172265 Z M22.7865714,22.8494083 C20.4,25.2590117 16.5162857,25.2590117 14.1294286,22.8494083 L13.8697143,22.614909 C13.8131429,22.55751 13.3345714,22.0775507 12.982,21.335979 C12.6531429,22.0368811 12.2165714,22.5174172 12.098,22.6411568 L11.8917143,22.8494083 C9.50485714,25.2590117 5.62085714,25.2590117 3.234,22.8494083 C0.847142857,20.439805 0.847142857,16.5190798 3.234,14.1088996 L10.1834286,7.09382146 L10.684,7.59945165 L3.73485714,14.6148182 C1.62371429,16.7460798 1.62371429,20.2130934 3.73485714,22.3440666 C5.84571429,24.4753281 9.28,24.4753281 11.3908571,22.3440666 L11.6082857,22.1242775 C12.1562857,21.5499993 12.57,20.6636322 12.6005714,19.7507288 C12.6005714,19.7239042 12.6025714,19.6970795 12.6031429,19.6708317 C12.6094286,18.9572384 12.378,18.2341267 11.786,17.6359082 L10.6831429,16.522541 L10.5771429,16.4086084 L8.59371429,14.4065667 L9.09428571,13.9009365 L11.8637143,16.696757 L12.096,16.9355829 C12.5068571,17.3506439 12.7985714,17.7636858 12.9991429,18.1669208 C13.2005714,17.7781076 13.4862857,17.3794876 13.8854286,16.9762526 L13.9237143,16.9335639 L20.8734286,9.91819731 C22.2045714,8.57408053 22.2045714,6.38657375 20.8731429,5.04245697 C19.542,3.69834019 17.3754286,3.69834019 16.044,5.04245697 L15.8377143,5.25099698 L15.3374286,4.74565522 L15.5434286,4.53711521 C17.1505714,2.91465666 19.7665714,2.91465666 21.3737143,4.53711521 C22.9814286,6.16015064 22.9814286,8.80050364 21.3737143,10.4229622 L14.4234286,17.4389056 L14.2042857,17.6610022 C12.8134286,19.0651139 13.3597143,21.0758087 14.3768571,22.1020679 L14.63,22.3440666 C16.7408571,24.4753281 20.1751429,24.4753281 22.286,22.3440666 C24.3971429,20.2130934 24.3971429,16.7460798 22.286,14.6148182 L22.0797143,14.4065667 L22.5802857,13.9009365 L22.7865714,14.1094765 C25.1734286,16.5190798 25.1734286,20.4395165 22.7865714,22.8494083 L22.7865714,22.8494083 Z" id="Shape"></path>
                </g>
            </g>
        </g>
    </g>
</svg>